<?xml version="1.0" encoding="UTF-8" standalone="no"?> <svg height="550.35936pt" viewBox="-17 -17 550.35936 550.35936" width="550.35936pt" xmlns="http://www.w3.org/2000/svg"><path d="m257.984375 515.960938c142.246094 0 257.976563-115.726563 257.976563-257.976563s-115.730469-257.984375-257.976563-257.984375c-142.25 0-257.984375 115.734375-257.984375 257.984375 0 142.246094 115.734375 257.976563 257.984375 257.976563zm0-493.460938c129.84375 0 235.476563 105.632812 235.476563 235.484375.039062 33.339844-7.046876 66.304687-20.773438 96.6875l-93.253906-61.070313v-92.023437c0-6.21875-5.035156-11.25-11.25-11.25h-69.351563c-6.214843 0-11.25 5.03125-11.25 11.25v31.863281l-61.71875-40.425781v-122.515625c0-6.210938-5.035156-11.25-11.25-11.25h-32.695312c-6.214844 0-11.25 5.039062-11.25 11.25v86.375l-87.039063-57c44.558594-49.289062 107.910156-77.398438 174.355469-77.375zm75.527344 308.980469c-13.101563-.1875-23.582031-10.9375-23.429688-24.039063v-32.371094l46.855469 30.6875v1.683594c.152344 13.101563-10.328125 23.851563-23.425781 24.039063zm23.425781-95.996094h-46.855469v-22.65625h46.855469zm-31.890625 22.5h31.890625v20.882813zm-121.683594-172.5h-10.195312v-3.734375h10.195312zm-10.195312 22.5h10.195312v5h-10.195312zm0 27.5h10.195312v42.800781l-10.195312-6.679687zm5.097656 79.246094c21.140625.027343 38.265625 17.152343 38.292969 38.292969v19.875h-45.511719c-6.21875 0-11.25 5.035156-11.25 11.25v114.539062c0 6.210938 5.03125 11.25 11.25 11.25h45.511719v15.722656c-.003906 4.726563-3.839844 8.558594-8.566406 8.5625h-59.453126c-4.726562-.003906-8.558593-3.835937-8.5625-8.5625v-172.628906c.019532-21.140625 17.148438-38.273438 38.289063-38.300781zm38.292969 172.699219h-34.261719v-92.035157h34.261719zm-167.324219-270.101563 101.429687 66.4375v15.121094c-20.347656 10.386719-33.160156 31.292969-33.183593 54.136719v172.625c.019531 17.148437 13.917969 31.046874 31.070312 31.066406h59.449219c17.148438-.019532 31.046875-13.917969 31.066406-31.066406v-172.625c0-4.085938-.410156-8.164063-1.222656-12.167969l29.742188 19.480469v47.109374c-.0625 20.976563 13.921874 39.398438 34.148437 44.980469v81.808594h-25c-6.21875 0-11.25 5.03125-11.25 11.25 0 6.210937 5.03125 11.25 11.25 11.25h71.25c6.210937 0 11.25-5.039063 11.25-11.25 0-6.21875-5.039063-11.25-11.25-11.25h-23.75v-81.542969c16.4375-4.09375 29.339844-16.832031 33.640625-33.21875l84.503906 55.347656c-41.945312 73.324219-119.921875 118.585938-204.394531 118.640626-129.851563 0-235.484375-105.632813-235.484375-235.476563-.058594-50.710937 16.34375-100.0625 46.734375-140.65625zm0 0"/></svg>