<svg width="233" height="78" viewBox="0 0 233 78" fill="none" xmlns="http://www.w3.org/2000/svg">
<path d="M125.419 7.72727H128.237V23.1364C128.237 24.7273 127.862 26.1477 127.112 27.3977C126.37 28.6402 125.321 29.6212 123.964 30.3409C122.608 31.053 121.018 31.4091 119.192 31.4091C117.366 31.4091 115.775 31.053 114.419 30.3409C113.063 29.6212 112.01 28.6402 111.26 27.3977C110.518 26.1477 110.146 24.7273 110.146 23.1364V7.72727H112.964V22.9091C112.964 24.0455 113.214 25.0568 113.714 25.9432C114.214 26.822 114.927 27.5152 115.851 28.0227C116.783 28.5227 117.896 28.7727 119.192 28.7727C120.487 28.7727 121.601 28.5227 122.533 28.0227C123.464 27.5152 124.177 26.822 124.669 25.9432C125.169 25.0568 125.419 24.0455 125.419 22.9091V7.72727ZM134.82 31H131.865L140.411 7.72727H143.32L151.865 31H148.911L141.956 11.4091H141.774L134.82 31ZM135.911 21.9091H147.82V24.4091H135.911V21.9091ZM3.17756 70V46.7273H5.99574V57.0909H18.4048V46.7273H21.223V70H18.4048V59.5909H5.99574V70H3.17756ZM29.6832 46.7273V70H26.8651V46.7273H29.6832ZM48.0611 52.5455C47.9247 51.3939 47.3717 50.5 46.402 49.8636C45.4323 49.2273 44.2429 48.9091 42.8338 48.9091C41.8035 48.9091 40.902 49.0758 40.1293 49.4091C39.3641 49.7424 38.7656 50.2008 38.3338 50.7841C37.9096 51.3674 37.6974 52.0303 37.6974 52.7727C37.6974 53.3939 37.8452 53.928 38.1406 54.375C38.4437 54.8144 38.83 55.1818 39.2997 55.4773C39.7694 55.7652 40.2618 56.0038 40.777 56.1932C41.2921 56.375 41.7656 56.5227 42.1974 56.6364L44.5611 57.2727C45.1671 57.4318 45.8414 57.6515 46.5838 57.9318C47.3338 58.2121 48.0497 58.5947 48.7315 59.0795C49.4209 59.5568 49.9891 60.1705 50.4361 60.9205C50.8831 61.6705 51.1065 62.5909 51.1065 63.6818C51.1065 64.9394 50.777 66.0758 50.1179 67.0909C49.4664 68.1061 48.5118 68.9129 47.2543 69.5114C46.0043 70.1098 44.4853 70.4091 42.6974 70.4091C41.0308 70.4091 39.5876 70.1402 38.3679 69.6023C37.1558 69.0644 36.2012 68.3144 35.5043 67.3523C34.8149 66.3902 34.4247 65.2727 34.3338 64H37.2429C37.3187 64.8788 37.6141 65.6061 38.1293 66.1818C38.652 66.75 39.3111 67.1742 40.1065 67.4545C40.9096 67.7273 41.7732 67.8636 42.6974 67.8636C43.7732 67.8636 44.7391 67.6894 45.5952 67.3409C46.4512 66.9848 47.1293 66.4924 47.6293 65.8636C48.1293 65.2273 48.3793 64.4848 48.3793 63.6364C48.3793 62.8636 48.1634 62.2348 47.7315 61.75C47.2997 61.2652 46.7315 60.8712 46.027 60.5682C45.3224 60.2652 44.5611 60 43.7429 59.7727L40.8793 58.9545C39.0611 58.4318 37.6217 57.6856 36.5611 56.7159C35.5005 55.7462 34.9702 54.4773 34.9702 52.9091C34.9702 51.6061 35.3224 50.4697 36.027 49.5C36.7391 48.5227 37.6937 47.7652 38.8906 47.2273C40.0952 46.6818 41.4399 46.4091 42.9247 46.4091C44.4247 46.4091 45.758 46.678 46.9247 47.2159C48.0914 47.7462 49.0156 48.4735 49.6974 49.3977C50.3868 50.322 50.7505 51.3712 50.7884 52.5455H48.0611ZM54.4673 49.2273V46.7273H71.9219V49.2273H64.6037V70H61.7855V49.2273H54.4673ZM94.9389 58.3636C94.9389 60.8182 94.4957 62.9394 93.6094 64.7273C92.723 66.5152 91.5071 67.8939 89.9616 68.8636C88.4162 69.8333 86.651 70.3182 84.6662 70.3182C82.6813 70.3182 80.9162 69.8333 79.3707 68.8636C77.8253 67.8939 76.6094 66.5152 75.723 64.7273C74.8366 62.9394 74.3935 60.8182 74.3935 58.3636C74.3935 55.9091 74.8366 53.7879 75.723 52C76.6094 50.2121 77.8253 48.8333 79.3707 47.8636C80.9162 46.8939 82.6813 46.4091 84.6662 46.4091C86.651 46.4091 88.4162 46.8939 89.9616 47.8636C91.5071 48.8333 92.723 50.2121 93.6094 52C94.4957 53.7879 94.9389 55.9091 94.9389 58.3636ZM92.2116 58.3636C92.2116 56.3485 91.8745 54.6477 91.2003 53.2614C90.5336 51.875 89.6283 50.8258 88.4844 50.1136C87.348 49.4015 86.0753 49.0455 84.6662 49.0455C83.2571 49.0455 81.9806 49.4015 80.8366 50.1136C79.7003 50.8258 78.795 51.875 78.1207 53.2614C77.4541 54.6477 77.1207 56.3485 77.1207 58.3636C77.1207 60.3788 77.4541 62.0795 78.1207 63.4659C78.795 64.8523 79.7003 65.9015 80.8366 66.6136C81.9806 67.3258 83.2571 67.6818 84.6662 67.6818C86.0753 67.6818 87.348 67.3258 88.4844 66.6136C89.6283 65.9015 90.5336 64.8523 91.2003 63.4659C91.8745 62.0795 92.2116 60.3788 92.2116 58.3636ZM99.6776 70V46.7273H107.541C109.359 46.7273 110.852 47.0379 112.018 47.6591C113.185 48.2727 114.049 49.1174 114.609 50.1932C115.17 51.2689 115.45 52.4924 115.45 53.8636C115.45 55.2348 115.17 56.4508 114.609 57.5114C114.049 58.572 113.189 59.4053 112.03 60.0114C110.871 60.6098 109.39 60.9091 107.587 60.9091H101.223V58.3636H107.496C108.738 58.3636 109.738 58.1818 110.496 57.8182C111.261 57.4545 111.814 56.9394 112.155 56.2727C112.503 55.5985 112.678 54.7955 112.678 53.8636C112.678 52.9318 112.503 52.1174 112.155 51.4205C111.806 50.7235 111.25 50.1856 110.484 49.8068C109.719 49.4205 108.708 49.2273 107.45 49.2273H102.496V70H99.6776ZM110.632 59.5455L116.359 70H113.087L107.45 59.5455H110.632ZM117.365 46.7273H120.592L127.047 57.5909H127.32L133.774 46.7273H137.001L128.592 60.4091V70H125.774V60.4091L117.365 46.7273ZM168.374 54H165.555C165.389 53.1894 165.097 52.4773 164.68 51.8636C164.271 51.25 163.771 50.7348 163.18 50.3182C162.597 49.8939 161.949 49.5758 161.237 49.3636C160.525 49.1515 159.783 49.0455 159.01 49.0455C157.601 49.0455 156.324 49.4015 155.18 50.1136C154.044 50.8258 153.139 51.875 152.464 53.2614C151.798 54.6477 151.464 56.3485 151.464 58.3636C151.464 60.3788 151.798 62.0795 152.464 63.4659C153.139 64.8523 154.044 65.9015 155.18 66.6136C156.324 67.3258 157.601 67.6818 159.01 67.6818C159.783 67.6818 160.525 67.5758 161.237 67.3636C161.949 67.1515 162.597 66.8371 163.18 66.4205C163.771 65.9962 164.271 65.4773 164.68 64.8636C165.097 64.2424 165.389 63.5303 165.555 62.7273H168.374C168.161 63.9167 167.775 64.9811 167.214 65.9205C166.654 66.8598 165.957 67.6591 165.124 68.3182C164.29 68.9697 163.355 69.4659 162.317 69.8068C161.286 70.1477 160.184 70.3182 159.01 70.3182C157.025 70.3182 155.26 69.8333 153.714 68.8636C152.169 67.8939 150.953 66.5152 150.067 64.7273C149.18 62.9394 148.737 60.8182 148.737 58.3636C148.737 55.9091 149.18 53.7879 150.067 52C150.953 50.2121 152.169 48.8333 153.714 47.8636C155.26 46.8939 157.025 46.4091 159.01 46.4091C160.184 46.4091 161.286 46.5795 162.317 46.9205C163.355 47.2614 164.29 47.7614 165.124 48.4205C165.957 49.072 166.654 49.8674 167.214 50.8068C167.775 51.7386 168.161 52.803 168.374 54ZM172.928 70V46.7273H175.746V67.5H186.564V70H172.928ZM206.2 46.7273H209.018V62.1364C209.018 63.7273 208.643 65.1477 207.893 66.3977C207.151 67.6402 206.102 68.6212 204.746 69.3409C203.39 70.053 201.799 70.4091 199.973 70.4091C198.147 70.4091 196.556 70.053 195.2 69.3409C193.844 68.6212 192.791 67.6402 192.041 66.3977C191.299 65.1477 190.928 63.7273 190.928 62.1364V46.7273H193.746V61.9091C193.746 63.0455 193.996 64.0568 194.496 64.9432C194.996 65.822 195.708 66.5152 196.632 67.0227C197.564 67.5227 198.678 67.7727 199.973 67.7727C201.268 67.7727 202.382 67.5227 203.314 67.0227C204.246 66.5152 204.958 65.822 205.45 64.9432C205.95 64.0568 206.2 63.0455 206.2 61.9091V46.7273ZM214.646 70V46.7273H222.783C224.404 46.7273 225.741 47.0076 226.794 47.5682C227.847 48.1212 228.631 48.8674 229.146 49.8068C229.661 50.7386 229.919 51.7727 229.919 52.9091C229.919 53.9091 229.741 54.7348 229.385 55.3864C229.036 56.0379 228.574 56.553 227.999 56.9318C227.43 57.3106 226.813 57.5909 226.146 57.7727V58C226.858 58.0455 227.574 58.2955 228.294 58.75C229.014 59.2045 229.616 59.8561 230.101 60.7045C230.586 61.553 230.828 62.5909 230.828 63.8182C230.828 64.9848 230.563 66.0341 230.033 66.9659C229.502 67.8977 228.665 68.6364 227.521 69.1818C226.377 69.7273 224.889 70 223.055 70H214.646ZM217.464 67.5H223.055C224.896 67.5 226.203 67.1439 226.976 66.4318C227.756 65.7121 228.146 64.8409 228.146 63.8182C228.146 63.0303 227.946 62.303 227.544 61.6364C227.143 60.9621 226.571 60.4242 225.828 60.0227C225.086 59.6136 224.207 59.4091 223.192 59.4091H217.464V67.5ZM217.464 56.9545H222.692C223.54 56.9545 224.305 56.7879 224.987 56.4545C225.677 56.1212 226.222 55.6515 226.624 55.0455C227.033 54.4394 227.237 53.7273 227.237 52.9091C227.237 51.8864 226.881 51.0189 226.169 50.3068C225.457 49.5871 224.328 49.2273 222.783 49.2273H217.464V56.9545Z" fill="black"/>
<rect x="72" y="5" width="21" height="26" fill="#4A90F8"/>
<rect x="40" y="5" width="21" height="26" fill="#F8F14A"/>
</svg>
