<svg width="175" height="58" viewBox="0 0 175 58" fill="none" xmlns="http://www.w3.org/2000/svg">
<path d="M94.1893 5.54545H96.3029V17.1023C96.3029 18.2955 96.0217 19.3608 95.4592 20.2983C94.9023 21.2301 94.1154 21.9659 93.0984 22.5057C92.0813 23.0398 90.8881 23.3068 89.5188 23.3068C88.1495 23.3068 86.9563 23.0398 85.9393 22.5057C84.9222 21.9659 84.1325 21.2301 83.57 20.2983C83.0131 19.3608 82.7347 18.2955 82.7347 17.1023V5.54545H84.8484V16.9318C84.8484 17.7841 85.0359 18.5426 85.4109 19.2074C85.7859 19.8665 86.32 20.3864 87.0131 20.767C87.712 21.142 88.5472 21.3295 89.5188 21.3295C90.4904 21.3295 91.3256 21.142 92.0245 20.767C92.7234 20.3864 93.2575 19.8665 93.6268 19.2074C94.0018 18.5426 94.1893 17.7841 94.1893 16.9318V5.54545ZM101.24 23H99.0238L105.433 5.54545H107.615L114.024 23H111.808L106.592 8.30682H106.456L101.24 23ZM102.058 16.1818H110.99V18.0568H102.058V16.1818ZM2.50817 52V34.5455H4.6218V42.3182H13.9286V34.5455H16.0423V52H13.9286V44.1932H4.6218V52H2.50817ZM22.3874 34.5455V52H20.2738V34.5455H22.3874ZM36.1708 38.9091C36.0685 38.0455 35.6538 37.375 34.9265 36.8977C34.1992 36.4205 33.3072 36.1818 32.2504 36.1818C31.4776 36.1818 30.8015 36.3068 30.2219 36.5568C29.6481 36.8068 29.1992 37.1506 28.8754 37.5881C28.5572 38.0256 28.3981 38.5227 28.3981 39.0795C28.3981 39.5455 28.5089 39.946 28.7305 40.2812C28.9577 40.6108 29.2475 40.8864 29.5998 41.108C29.9521 41.3239 30.3214 41.5028 30.7077 41.6449C31.0941 41.7812 31.4492 41.892 31.7731 41.9773L33.5458 42.4545C34.0004 42.5739 34.506 42.7386 35.0629 42.9489C35.6254 43.1591 36.1623 43.446 36.6737 43.8097C37.1907 44.1676 37.6168 44.6278 37.9521 45.1903C38.2873 45.7528 38.4549 46.4432 38.4549 47.2614C38.4549 48.2045 38.2077 49.0568 37.7134 49.8182C37.2248 50.5795 36.5089 51.1847 35.5657 51.6335C34.6282 52.0824 33.489 52.3068 32.1481 52.3068C30.8981 52.3068 29.8157 52.1051 28.9009 51.7017C27.9918 51.2983 27.2759 50.7358 26.7532 50.0142C26.2362 49.2926 25.9435 48.4545 25.8754 47.5H28.0572C28.114 48.1591 28.3356 48.7045 28.7219 49.1364C29.114 49.5625 29.6083 49.8807 30.2049 50.0909C30.8072 50.2955 31.4549 50.3977 32.1481 50.3977C32.9549 50.3977 33.6793 50.267 34.3214 50.0057C34.9634 49.7386 35.4719 49.3693 35.8469 48.8977C36.2219 48.4205 36.4094 47.8636 36.4094 47.2273C36.4094 46.6477 36.2475 46.1761 35.9237 45.8125C35.5998 45.4489 35.1737 45.1534 34.6452 44.9261C34.1168 44.6989 33.5458 44.5 32.9322 44.3295L30.7844 43.7159C29.4208 43.3239 28.3413 42.7642 27.5458 42.0369C26.7504 41.3097 26.3526 40.358 26.3526 39.1818C26.3526 38.2045 26.6168 37.3523 27.1452 36.625C27.6793 35.892 28.3952 35.3239 29.293 34.9205C30.1964 34.5114 31.2049 34.3068 32.3185 34.3068C33.4435 34.3068 34.4435 34.5085 35.3185 34.9119C36.1935 35.3097 36.8867 35.8551 37.3981 36.5483C37.9151 37.2415 38.1879 38.0284 38.2163 38.9091H36.1708ZM40.9755 36.4205V34.5455H54.0664V36.4205H48.5778V52H46.4641V36.4205H40.9755ZM71.3292 43.2727C71.3292 45.1136 70.9968 46.7045 70.332 48.0455C69.6673 49.3864 68.7553 50.4205 67.5962 51.1477C66.4371 51.875 65.1133 52.2386 63.6246 52.2386C62.136 52.2386 60.8121 51.875 59.6531 51.1477C58.494 50.4205 57.582 49.3864 56.9173 48.0455C56.2525 46.7045 55.9201 45.1136 55.9201 43.2727C55.9201 41.4318 56.2525 39.8409 56.9173 38.5C57.582 37.1591 58.494 36.125 59.6531 35.3977C60.8121 34.6705 62.136 34.3068 63.6246 34.3068C65.1133 34.3068 66.4371 34.6705 67.5962 35.3977C68.7553 36.125 69.6673 37.1591 70.332 38.5C70.9968 39.8409 71.3292 41.4318 71.3292 43.2727ZM69.2837 43.2727C69.2837 41.7614 69.0309 40.4858 68.5252 39.446C68.0252 38.4062 67.3462 37.6193 66.4883 37.0852C65.636 36.5511 64.6815 36.2841 63.6246 36.2841C62.5678 36.2841 61.6104 36.5511 60.7525 37.0852C59.9002 37.6193 59.2212 38.4062 58.7156 39.446C58.2156 40.4858 57.9656 41.7614 57.9656 43.2727C57.9656 44.7841 58.2156 46.0597 58.7156 47.0994C59.2212 48.1392 59.9002 48.9261 60.7525 49.4602C61.6104 49.9943 62.5678 50.2614 63.6246 50.2614C64.6815 50.2614 65.636 49.9943 66.4883 49.4602C67.3462 48.9261 68.0252 48.1392 68.5252 47.0994C69.0309 46.0597 69.2837 44.7841 69.2837 43.2727ZM74.8832 52V34.5455H80.7809C82.1445 34.5455 83.2638 34.7784 84.1388 35.2443C85.0138 35.7045 85.6616 36.3381 86.082 37.1449C86.5025 37.9517 86.7127 38.8693 86.7127 39.8977C86.7127 40.9261 86.5025 41.8381 86.082 42.6335C85.6616 43.429 85.0167 44.054 84.1474 44.5085C83.2781 44.9574 82.1673 45.1818 80.815 45.1818H76.0423V43.2727H80.7468C81.6786 43.2727 82.4286 43.1364 82.9968 42.8636C83.5707 42.5909 83.9854 42.2045 84.2411 41.7045C84.5025 41.1989 84.6332 40.5966 84.6332 39.8977C84.6332 39.1989 84.5025 38.5881 84.2411 38.0653C83.9798 37.5426 83.5621 37.1392 82.9883 36.8551C82.4144 36.5653 81.6559 36.4205 80.7127 36.4205H76.9968V52H74.8832ZM83.0991 44.1591L87.3945 52H84.94L80.7127 44.1591H83.0991ZM88.1488 34.5455H90.5692L95.4102 42.6932H95.6147L100.456 34.5455H102.876L96.5692 44.8068V52H94.4556V44.8068L88.1488 34.5455ZM126.405 40H124.292C124.167 39.392 123.948 38.858 123.635 38.3977C123.328 37.9375 122.953 37.5511 122.51 37.2386C122.073 36.9205 121.587 36.6818 121.053 36.5227C120.519 36.3636 119.962 36.2841 119.382 36.2841C118.326 36.2841 117.368 36.5511 116.51 37.0852C115.658 37.6193 114.979 38.4062 114.473 39.446C113.973 40.4858 113.723 41.7614 113.723 43.2727C113.723 44.7841 113.973 46.0597 114.473 47.0994C114.979 48.1392 115.658 48.9261 116.51 49.4602C117.368 49.9943 118.326 50.2614 119.382 50.2614C119.962 50.2614 120.519 50.1818 121.053 50.0227C121.587 49.8636 122.073 49.6278 122.51 49.3153C122.953 48.9972 123.328 48.608 123.635 48.1477C123.948 47.6818 124.167 47.1477 124.292 46.5455H126.405C126.246 47.4375 125.956 48.2358 125.536 48.9403C125.115 49.6449 124.593 50.2443 123.968 50.7386C123.343 51.2273 122.641 51.5994 121.863 51.8551C121.09 52.1108 120.263 52.2386 119.382 52.2386C117.894 52.2386 116.57 51.875 115.411 51.1477C114.252 50.4205 113.34 49.3864 112.675 48.0455C112.01 46.7045 111.678 45.1136 111.678 43.2727C111.678 41.4318 112.01 39.8409 112.675 38.5C113.34 37.1591 114.252 36.125 115.411 35.3977C116.57 34.6705 117.894 34.3068 119.382 34.3068C120.263 34.3068 121.09 34.4347 121.863 34.6903C122.641 34.946 123.343 35.321 123.968 35.8153C124.593 36.304 125.115 36.9006 125.536 37.6051C125.956 38.304 126.246 39.1023 126.405 40ZM129.821 52V34.5455H131.934V50.125H140.048V52H129.821ZM154.775 34.5455H156.889V46.1023C156.889 47.2955 156.608 48.3608 156.045 49.2983C155.488 50.2301 154.701 50.9659 153.684 51.5057C152.667 52.0398 151.474 52.3068 150.105 52.3068C148.735 52.3068 147.542 52.0398 146.525 51.5057C145.508 50.9659 144.718 50.2301 144.156 49.2983C143.599 48.3608 143.321 47.2955 143.321 46.1023V34.5455H145.434V45.9318C145.434 46.7841 145.622 47.5426 145.997 48.2074C146.372 48.8665 146.906 49.3864 147.599 49.767C148.298 50.142 149.133 50.3295 150.105 50.3295C151.076 50.3295 151.912 50.142 152.61 49.767C153.309 49.3864 153.843 48.8665 154.213 48.2074C154.588 47.5426 154.775 46.7841 154.775 45.9318V34.5455ZM161.11 52V34.5455H167.212C168.428 34.5455 169.431 34.7557 170.221 35.1761C171.01 35.5909 171.598 36.1506 171.985 36.8551C172.371 37.554 172.564 38.3295 172.564 39.1818C172.564 39.9318 172.431 40.5511 172.164 41.0398C171.902 41.5284 171.556 41.9148 171.124 42.1989C170.698 42.483 170.235 42.6932 169.735 42.8295V43C170.269 43.0341 170.806 43.2216 171.346 43.5625C171.885 43.9034 172.337 44.392 172.701 45.0284C173.064 45.6648 173.246 46.4432 173.246 47.3636C173.246 48.2386 173.047 49.0256 172.65 49.7244C172.252 50.4233 171.624 50.9773 170.766 51.3864C169.908 51.7955 168.792 52 167.417 52H161.11ZM163.223 50.125H167.417C168.797 50.125 169.777 49.858 170.357 49.3239C170.942 48.7841 171.235 48.1307 171.235 47.3636C171.235 46.7727 171.084 46.2273 170.783 45.7273C170.482 45.2216 170.053 44.8182 169.496 44.517C168.939 44.2102 168.28 44.0568 167.519 44.0568H163.223V50.125ZM163.223 42.2159H167.144C167.78 42.2159 168.354 42.0909 168.865 41.8409C169.382 41.5909 169.792 41.2386 170.093 40.7841C170.4 40.3295 170.553 39.7955 170.553 39.1818C170.553 38.4148 170.286 37.7642 169.752 37.2301C169.218 36.6903 168.371 36.4205 167.212 36.4205H163.223V42.2159Z" fill="black"/>
<rect x="18" y="5" width="19" height="23" fill="#F8F14A"/>
<rect x="47" y="5" width="19" height="23" fill="#4A90F8"/>
</svg>
